# xmcd
#
# Track frame offsets:
#	150
#	1460
#	19412
#	35145
#	55662
#	73117
#	89877
#	107932
#	124392
#	140762
#	157972
#	175337
#
# Disc length: 2552 seconds
#
# Revision: 1
# Processed by: cddbd v1.5.2PL0 Copyright (c) Steve Scherf et al.
# Submitted via: EasyCDDAExtractor 15.3.0.1
#
DISCID=b409f60c
DTITLE=India - Intensamente Con Canciones De Juan Gabriel
DYEAR=2015
DGENRE=Latin
TTITLE0=Intro Juan Gabriel
TTITLE1=Me Voy A Acostumbrar (Featuring Juan Gabriel) (Version Salsa)
TTITLE2=Ahora Que Te Vas
TTITLE3=Dimelo
TTITLE4=Viviendo Mi Vida
TTITLE5=No Tengo Dinero (Featuring Mola)
TTITLE6=Extraño Tus Ojos
TTITLE7=Inocente De Ti
TTITLE8=En Cualquier Parte Del Mundo
TTITLE9=Gracias A Dios
TTITLE10=Ya No Vuelvo A Molestarte
TTITLE11=Me Voy A Acostumbrar (Featuring Juan Gabriel) (Version Pop) (Bonus Tr
TTITLE11=ack)
EXTD=
EXTT0=
EXTT1=
EXTT2=
EXTT3=
EXTT4=
EXTT5=
EXTT6=
EXTT7=
EXTT8=
EXTT9=
EXTT10=
EXTT11=
PLAYORDER=
